<svg width="37" height="36" viewBox="0 0 37 36" fill="none" xmlns="http://www.w3.org/2000/svg">
<rect width="37" height="36" rx="10" fill="#837F7F"/>
<path d="M28.7064 14.1767C27.869 14.179 27.0528 14.4403 26.3698 14.9248C25.6867 15.4092 25.1702 16.0931 24.8911 16.8826H7.0589C6.70007 16.8826 6.35594 17.0252 6.10221 17.2789C5.84848 17.5326 5.70593 17.8768 5.70593 18.2356C5.70593 18.5944 5.84848 18.9386 6.10221 19.1923C6.35594 19.446 6.70007 19.5886 7.0589 19.5886H24.8911C25.1393 20.2906 25.5758 20.9108 26.1529 21.3814C26.73 21.8519 27.4254 22.1546 28.163 22.2564C28.9007 22.3582 29.6521 22.2551 30.335 21.9584C31.018 21.6617 31.6062 21.1829 32.0352 20.5743C32.4643 19.9658 32.7176 19.2509 32.7676 18.5079C32.8176 17.765 32.6622 17.0227 32.3185 16.3621C31.9748 15.7016 31.4561 15.1483 30.819 14.7628C30.1819 14.3774 29.4511 14.1746 28.7064 14.1767ZM28.7064 19.5886C28.4389 19.5886 28.1773 19.5092 27.9548 19.3606C27.7323 19.2119 27.5589 19.0006 27.4565 18.7534C27.3541 18.5061 27.3273 18.2341 27.3795 17.9716C27.4317 17.7092 27.5605 17.4681 27.7497 17.2789C27.939 17.0897 28.18 16.9608 28.4425 16.9086C28.7049 16.8564 28.977 16.8832 29.2242 16.9856C29.4714 17.088 29.6827 17.2614 29.8314 17.4839C29.9801 17.7064 30.0594 17.968 30.0594 18.2356C30.0594 18.5944 29.9169 18.9386 29.6631 19.1923C29.4094 19.446 29.0653 19.5886 28.7064 19.5886Z" fill="#231F20"/>
<path d="M7.0589 11.4708H8.65541C8.93981 12.2543 9.45857 12.9313 10.1412 13.4098C10.8238 13.8882 11.6372 14.1449 12.4708 14.1449C13.3044 14.1449 14.1178 13.8882 14.8004 13.4098C15.483 12.9313 16.0018 12.2543 16.2862 11.4708H31.4124C31.7712 11.4708 32.1154 11.3282 32.3691 11.0745C32.6228 10.8207 32.7654 10.4766 32.7654 10.1178C32.7654 9.75896 32.6228 9.41482 32.3691 9.16109C32.1154 8.90736 31.7712 8.76481 31.4124 8.76481H16.2862C16.0018 7.98124 15.483 7.30423 14.8004 6.82579C14.1178 6.34736 13.3044 6.0907 12.4708 6.0907C11.6372 6.0907 10.8238 6.34736 10.1412 6.82579C9.45857 7.30423 8.93981 7.98124 8.65541 8.76481H7.0589C6.70007 8.76481 6.35594 8.90736 6.10221 9.16109C5.84848 9.41482 5.70593 9.75896 5.70593 10.1178C5.70593 10.4766 5.84848 10.8207 6.10221 11.0745C6.35594 11.3282 6.70007 11.4708 7.0589 11.4708ZM12.4708 8.76481C12.7384 8.76481 13 8.84417 13.2225 8.99283C13.445 9.1415 13.6184 9.3528 13.7208 9.60003C13.8232 9.84725 13.85 10.1193 13.7978 10.3817C13.7456 10.6442 13.6167 10.8853 13.4275 11.0745C13.2383 11.2637 12.9972 11.3926 12.7347 11.4448C12.4723 11.497 12.2003 11.4702 11.953 11.3678C11.7058 11.2654 11.4945 11.092 11.3458 10.8695C11.1972 10.647 11.1178 10.3854 11.1178 10.1178C11.1178 9.75896 11.2604 9.41482 11.5141 9.16109C11.7678 8.90736 12.112 8.76481 12.4708 8.76481Z" fill="#231F20"/>
<path d="M31.4124 25.0005H21.6981C21.4137 24.2169 20.8949 23.5399 20.2123 23.0614C19.5296 22.583 18.7163 22.3263 17.8827 22.3263C17.0491 22.3263 16.2357 22.583 15.5531 23.0614C14.8705 23.5399 14.3517 24.2169 14.0673 25.0005H7.0589C6.70007 25.0005 6.35594 25.143 6.10221 25.3967C5.84848 25.6505 5.70593 25.9946 5.70593 26.3534C5.70593 26.7123 5.84848 27.0564 6.10221 27.3101C6.35594 27.5639 6.70007 27.7064 7.0589 27.7064H14.0673C14.3517 28.49 14.8705 29.167 15.5531 29.6454C16.2357 30.1239 17.0491 30.3805 17.8827 30.3805C18.7163 30.3805 19.5296 30.1239 20.2123 29.6454C20.8949 29.167 21.4137 28.49 21.6981 27.7064H31.4124C31.7712 27.7064 32.1154 27.5639 32.3691 27.3101C32.6228 27.0564 32.7654 26.7123 32.7654 26.3534C32.7654 25.9946 32.6228 25.6505 32.3691 25.3967C32.1154 25.143 31.7712 25.0005 31.4124 25.0005ZM17.8827 27.7064C17.6151 27.7064 17.3535 27.627 17.131 27.4784C16.9085 27.3297 16.7351 27.1184 16.6327 26.8712C16.5303 26.624 16.5035 26.3519 16.5557 26.0895C16.6079 25.827 16.7368 25.5859 16.926 25.3967C17.1152 25.2075 17.3563 25.0787 17.6187 25.0265C17.8812 24.9742 18.1532 25.001 18.4004 25.1034C18.6477 25.2058 18.859 25.3793 19.0076 25.6018C19.1563 25.8243 19.2356 26.0858 19.2356 26.3534C19.2356 26.7123 19.0931 27.0564 18.8394 27.3101C18.5856 27.5639 18.2415 27.7064 17.8827 27.7064Z" fill="#231F20"/>
</svg>
