<svg width="26" height="26" viewBox="0 0 26 26" fill="none" xmlns="http://www.w3.org/2000/svg">
<path d="M13.659 23.3487C13.1465 23.3481 12.6548 23.1461 12.2899 22.7862L5.48696 15.9726C5.31238 15.799 5.20358 15.5702 5.17918 15.3252L4.24523 5.40201C4.23093 5.24656 4.2511 5.08987 4.3043 4.94311C4.3575 4.79635 4.44242 4.66314 4.55301 4.55296C4.66318 4.44238 4.7964 4.35746 4.94316 4.30426C5.08992 4.25106 5.2466 4.23089 5.40205 4.24518L15.3253 5.17913C15.5702 5.20354 15.7991 5.31234 15.9726 5.48691L22.7862 12.2899C23.1472 12.6519 23.3499 13.1424 23.3499 13.6536C23.3499 14.1649 23.1472 14.6554 22.7862 15.0174L15.0175 22.7862C14.6565 23.1454 14.1683 23.3476 13.659 23.3487ZM7.29117 14.7415L13.659 21.1093L21.1412 13.6271L14.7734 7.25929L6.48458 6.48454L7.29117 14.7415Z" fill="#231F20"/>
<path d="M11.1437 12.7356C12.0229 12.7356 12.7357 12.0229 12.7357 11.1437C12.7357 10.2644 12.0229 9.5517 11.1437 9.5517C10.2645 9.5517 9.55174 10.2644 9.55174 11.1437C9.55174 12.0229 10.2645 12.7356 11.1437 12.7356Z" fill="#231F20"/>
</svg>
