<svg width="27" height="27" viewBox="0 0 27 27" fill="none" xmlns="http://www.w3.org/2000/svg">
<path d="M20.25 3.37497H6.75C5.85489 3.37497 4.99645 3.73055 4.36351 4.36348C3.73058 4.99642 3.375 5.85486 3.375 6.74997V20.25C3.375 21.1451 3.73058 22.0035 4.36351 22.6365C4.99645 23.2694 5.85489 23.625 6.75 23.625H20.25C21.1451 23.625 22.0036 23.2694 22.6365 22.6365C23.2694 22.0035 23.625 21.1451 23.625 20.25V6.74997C23.625 5.85486 23.2694 4.99642 22.6365 4.36348C22.0036 3.73055 21.1451 3.37497 20.25 3.37497ZM13.5 6.74997C13.7225 6.74997 13.94 6.81595 14.125 6.93957C14.31 7.06318 14.4542 7.23888 14.5394 7.44445C14.6245 7.65002 14.6468 7.87622 14.6034 8.09445C14.56 8.31267 14.4528 8.51313 14.2955 8.67046C14.1382 8.8278 13.9377 8.93494 13.7195 8.97835C13.5012 9.02176 13.275 8.99948 13.0695 8.91433C12.8639 8.82919 12.6882 8.68499 12.5646 8.49999C12.441 8.31498 12.375 8.09747 12.375 7.87497C12.375 7.5766 12.4935 7.29045 12.7045 7.07947C12.9155 6.8685 13.2016 6.74997 13.5 6.74997ZM9 6.74997C9.2225 6.74997 9.44001 6.81595 9.62502 6.93957C9.81002 7.06318 9.95422 7.23888 10.0394 7.44445C10.1245 7.65002 10.1468 7.87622 10.1034 8.09445C10.06 8.31267 9.95283 8.51313 9.7955 8.67046C9.63816 8.8278 9.43771 8.93494 9.21948 8.97835C9.00125 9.02176 8.77505 8.99948 8.56948 8.91433C8.36391 8.82919 8.18821 8.68499 8.0646 8.49999C7.94098 8.31498 7.875 8.09747 7.875 7.87497C7.875 7.5766 7.99353 7.29045 8.2045 7.07947C8.41548 6.8685 8.70163 6.74997 9 6.74997ZM21.375 20.25C21.375 20.5483 21.2565 20.8345 21.0455 21.0455C20.8345 21.2564 20.5484 21.375 20.25 21.375H6.75C6.45163 21.375 6.16548 21.2564 5.9545 21.0455C5.74353 20.8345 5.625 20.5483 5.625 20.25V12.375H21.375V20.25Z" fill="#231F20"/>
</svg>
